<?xml version="1.0" encoding="UTF-8" standalone="no"?>
<svg
   id="svg3297"
   height="64"
   width="64"
   version="1.0"
   sodipodi:docname="jetbrains-toolbox.svg"
   inkscape:version="1.4.2 (ebf0e940d0, 2025-05-08)"
   xmlns:inkscape="http://www.inkscape.org/namespaces/inkscape"
   xmlns:sodipodi="http://sodipodi.sourceforge.net/DTD/sodipodi-0.dtd"
   xmlns="http://www.w3.org/2000/svg"
   xmlns:svg="http://www.w3.org/2000/svg"
   xmlns:rdf="http://www.w3.org/1999/02/22-rdf-syntax-ns#"
   xmlns:cc="http://creativecommons.org/ns#"
   xmlns:dc="http://purl.org/dc/elements/1.1/">
  <sodipodi:namedview
     id="namedview1"
     pagecolor="#9c4444"
     bordercolor="#000000"
     borderopacity="0.25"
     inkscape:showpageshadow="2"
     inkscape:pageopacity="0.0"
     inkscape:pagecheckerboard="0"
     inkscape:deskcolor="#d1d1d1"
     inkscape:zoom="3.2734375"
     inkscape:cx="40.782816"
     inkscape:cy="33.298329"
     inkscape:window-width="2560"
     inkscape:window-height="1388"
     inkscape:window-x="0"
     inkscape:window-y="0"
     inkscape:window-maximized="1"
     inkscape:current-layer="svg3297" />
  <metadata
     id="metadata58">
    <rdf:RDF>
      <cc:Work
         rdf:about="">
        <dc:format>image/svg+xml</dc:format>
        <dc:type
           rdf:resource="http://purl.org/dc/dcmitype/StillImage" />
      </cc:Work>
    </rdf:RDF>
  </metadata>
  <defs
     id="defs3299">
    <style
       id="current-color-scheme"
       type="text/css">.ColorScheme-Text {color:#d8dee9} .ColorScheme-Highlight {color:#3b4252}</style>
  </defs>
  <path
     id="path5"
     style="fill:currentColor;fill-opacity:1;stroke-width:1.35513"
     d="M 32.001953 5.5 A 26.973161 26.501075 0 0 0 5.0273438 32 A 26.973161 26.501075 0 0 0 32.001953 58.5 A 26.973161 26.501075 0 0 0 58.972656 32 A 26.973161 26.501075 0 0 0 32.001953 5.5 z M 19.125 13.072266 L 44.755859 13.072266 C 48.305929 13.072266 51.166016 15.885356 51.166016 19.380859 L 51.166016 44.619141 C 51.166016 48.114644 48.305929 50.927734 44.755859 50.927734 L 19.125 50.927734 C 15.57493 50.927734 12.716797 48.114644 12.716797 44.619141 L 12.716797 19.380859 C 12.716797 15.885356 15.57493 13.072266 19.125 13.072266 z M 15.390625 43.853516 L 15.390625 46.818359 L 30.435547 46.818359 L 30.435547 43.853516 L 15.390625 43.853516 z "
     class="ColorScheme-Text" />
</svg>
