<?xml version="1.0" encoding="UTF-8" standalone="no"?>
<svg
   width="64"
   height="64"
   version="1.1"
   viewBox="0 0 16.933 16.933"
   id="svg7"
   sodipodi:docname="okular.svg"
   inkscape:version="1.4.2 (ebf0e940d0, 2025-05-08)"
   xmlns:inkscape="http://www.inkscape.org/namespaces/inkscape"
   xmlns:sodipodi="http://sodipodi.sourceforge.net/DTD/sodipodi-0.dtd"
   xmlns="http://www.w3.org/2000/svg"
   xmlns:svg="http://www.w3.org/2000/svg"
   xmlns:rdf="http://www.w3.org/1999/02/22-rdf-syntax-ns#"
   xmlns:cc="http://creativecommons.org/ns#"
   xmlns:dc="http://purl.org/dc/elements/1.1/">
  <sodipodi:namedview
     id="namedview7"
     pagecolor="#9c4444"
     bordercolor="#000000"
     borderopacity="0.25"
     inkscape:showpageshadow="2"
     inkscape:pageopacity="0.0"
     inkscape:pagecheckerboard="0"
     inkscape:deskcolor="#d1d1d1"
     inkscape:zoom="6.15625"
     inkscape:cx="15.593909"
     inkscape:cy="29.725888"
     inkscape:window-width="2560"
     inkscape:window-height="1392"
     inkscape:window-x="0"
     inkscape:window-y="0"
     inkscape:window-maximized="1"
     inkscape:current-layer="svg7"
     showgrid="false" />
  <defs
     id="defs2">
    <style
       id="current-color-scheme"
       type="text/css">.ColorScheme-Text {color:#d8dee9} .ColorScheme-Highlight {color:#3b4252}</style>
  </defs>
  <metadata
     id="metadata2">
    <rdf:RDF>
      <cc:Work
         rdf:about="">
        <dc:format>image/svg+xml</dc:format>
        <dc:type
           rdf:resource="http://purl.org/dc/dcmitype/StillImage" />
      </cc:Work>
    </rdf:RDF>
  </metadata>
  <path
     style="fill:currentColor;stroke:none;stroke-width:0.371252;stroke-dasharray:none;stroke-opacity:0.3"
     d="m 8.5451908,1.458407 c -1.2384196,0.00979 -1.429984,-0.010799 -2.7978189,0 C 4.6060613,2.5384384 3.6389014,3.9734322 2.8476131,5.6044686 1.6257868,8.1229422 1.3352775,10.250167 1.9860746,11.994173 c 0.6507913,1.744019 2.1441857,2.837439 4.4738561,3.284076 2.4487379,0.469462 4.7188063,0.111582 6.8116703,-1.08331 0.320141,-0.182781 1.658044,-0.750269 1.958523,-0.965511 0.129063,-0.910368 -0.0095,-2.092734 -0.01974,-3.3856414 C 14.453788,10.888219 12.607396,12.695498 11.719757,13.34035 10.149362,14.481182 8.526625,14.888379 6.8445188,14.565889 5.2442635,14.259097 4.3048564,13.351354 4.0287767,11.841102 3.7635497,10.325228 4.1966127,8.4029555 5.3294571,6.0678981 6.2583876,4.1531436 7.3287871,2.5759467 8.5451908,1.458407 Z"
     id="path10"
     sodipodi:nodetypes="scscsscccsccs"
     class="ColorScheme-Text" />
  <g
     id="g9"
     transform="matrix(0.43684574,0,0,0.43684574,4.4908697,3.5485289)"
     style="fill:#999999;fill-opacity:1;stroke:none;stroke-width:0.58349;stroke-dasharray:none;stroke-opacity:0.3" />
</svg>
