<?xml version="1.0" encoding="UTF-8" standalone="no"?>
<svg
   id="svg3297"
   height="64"
   width="64"
   version="1.0"
   sodipodi:docname="phpstorm.svg"
   inkscape:version="1.4.2 (ebf0e940d0, 2025-05-08)"
   xmlns:inkscape="http://www.inkscape.org/namespaces/inkscape"
   xmlns:sodipodi="http://sodipodi.sourceforge.net/DTD/sodipodi-0.dtd"
   xmlns="http://www.w3.org/2000/svg"
   xmlns:svg="http://www.w3.org/2000/svg"
   xmlns:rdf="http://www.w3.org/1999/02/22-rdf-syntax-ns#"
   xmlns:cc="http://creativecommons.org/ns#"
   xmlns:dc="http://purl.org/dc/elements/1.1/">
  <sodipodi:namedview
     id="namedview1"
     pagecolor="#9c4444"
     bordercolor="#000000"
     borderopacity="0.25"
     inkscape:showpageshadow="2"
     inkscape:pageopacity="0.0"
     inkscape:pagecheckerboard="0"
     inkscape:deskcolor="#d1d1d1"
     inkscape:zoom="3.2734375"
     inkscape:cx="40.782816"
     inkscape:cy="33.298329"
     inkscape:window-width="2560"
     inkscape:window-height="1388"
     inkscape:window-x="0"
     inkscape:window-y="0"
     inkscape:window-maximized="1"
     inkscape:current-layer="svg3297" />
  <metadata
     id="metadata58">
    <rdf:RDF>
      <cc:Work
         rdf:about="">
        <dc:format>image/svg+xml</dc:format>
        <dc:type
           rdf:resource="http://purl.org/dc/dcmitype/StillImage" />
      </cc:Work>
    </rdf:RDF>
  </metadata>
  <defs
     id="defs3299">
    <style
       id="current-color-scheme"
       type="text/css">.ColorScheme-Text {color:#d8dee9} .ColorScheme-Highlight {color:#3b4252}</style>
  </defs>
  <path
     id="path5"
     style="fill:currentColor;fill-opacity:1;stroke:none;stroke-width:2.67356;stroke-miterlimit:4;stroke-dasharray:none;stroke-opacity:1"
     d="M 31.999995,5.5 A 26.973214,26.5 0 0 0 5.026785,32 26.973214,26.5 0 0 0 31.999995,58.5 26.973214,26.5 0 0 0 58.973215,32 26.973214,26.5 0 0 0 31.999995,5.5 Z m -12.84517,7.571429 h 25.69036 c 3.55792,0 6.42166,2.813448 6.42166,6.308892 v 25.239358 c 0,3.495539 -2.86374,6.308892 -6.42166,6.308892 h -25.69036 c -3.55793,0 -6.42167,-2.813353 -6.42167,-6.308892 V 19.380321 c 0,-3.495444 2.86374,-6.308892 6.42167,-6.308892 z m -0.72461,4.111096 v 16.294471 h 3.01489 v -5.924453 h 3.01674 c 3.62995,0 6.02978,-1.454472 6.02978,-5.111093 v -0.07382 c 0,-3.298872 -1.63617,-5.185009 -5.53808,-5.185009 z m 21.14676,0 c -3.26695,0 -6.10187,1.611579 -6.10187,4.552795 v 0.09275 c 0,2.063403 2.10831,3.900232 5.37541,4.702519 2.72239,0.713607 3.7432,1.359545 3.7432,2.249661 v 0.09086 c 0,0.980784 -1.56482,1.645177 -3.01674,1.645177 -1.81496,0 -3.07138,-0.664772 -4.52327,-1.824525 l -1.97049,2.096245 c 1.90569,1.693066 4.04397,2.601637 6.49376,2.691358 3.44842,0 5.96694,-2.117917 5.96694,-4.874485 v -0.09086 c 0,-2.440177 -1.94586,-3.459765 -5.21275,-4.3513 -2.72237,-0.712756 -3.76909,-1.211713 -3.76909,-2.281083 v -0.277208 c 0,-0.802667 1.65361,-1.456649 3.0149,-1.456649 1.36124,0 2.38179,0.09729 3.83377,1.077699 l 1.67844,-2.249661 c -1.71478,-1.016843 -3.15275,-1.791211 -5.51221,-1.791211 z m -18.13187,2.959387 h 3.0149 c 1.81492,0 3.01674,0.617829 3.01674,2.223729 v 0.07382 c 0,1.33683 -1.20177,2.147919 -3.01674,2.147919 h -3.0149 z m -6.03164,23.708793 v 2.961281 h 15.07816 v -2.961281 z"
     class="ColorScheme-Text" />
</svg>
