<?xml version="1.0" encoding="UTF-8" standalone="no"?>
<svg
   id="svg3297"
   height="64"
   width="64"
   version="1.0"
   sodipodi:docname="clion.svg"
   inkscape:version="1.4.2 (ebf0e940d0, 2025-05-08)"
   xmlns:inkscape="http://www.inkscape.org/namespaces/inkscape"
   xmlns:sodipodi="http://sodipodi.sourceforge.net/DTD/sodipodi-0.dtd"
   xmlns="http://www.w3.org/2000/svg"
   xmlns:svg="http://www.w3.org/2000/svg"
   xmlns:rdf="http://www.w3.org/1999/02/22-rdf-syntax-ns#"
   xmlns:cc="http://creativecommons.org/ns#"
   xmlns:dc="http://purl.org/dc/elements/1.1/">
  <sodipodi:namedview
     id="namedview1"
     pagecolor="#9c4444"
     bordercolor="#000000"
     borderopacity="0.25"
     inkscape:showpageshadow="2"
     inkscape:pageopacity="0.0"
     inkscape:pagecheckerboard="0"
     inkscape:deskcolor="#d1d1d1"
     inkscape:zoom="3.2734375"
     inkscape:cx="40.782816"
     inkscape:cy="33.298329"
     inkscape:window-width="2560"
     inkscape:window-height="1388"
     inkscape:window-x="0"
     inkscape:window-y="0"
     inkscape:window-maximized="1"
     inkscape:current-layer="svg3297" />
  <metadata
     id="metadata58">
    <rdf:RDF>
      <cc:Work
         rdf:about="">
        <dc:format>image/svg+xml</dc:format>
        <dc:type
           rdf:resource="http://purl.org/dc/dcmitype/StillImage" />
      </cc:Work>
    </rdf:RDF>
  </metadata>
  <defs
     id="defs3299">
    <style
       id="current-color-scheme"
       type="text/css">.ColorScheme-Text {color:#d8dee9} .ColorScheme-Highlight {color:#3b4252}</style>
  </defs>
  <path
     id="path5"
     style="fill:currentColor;stroke-width:4.81174;paint-order:stroke fill markers"
     d="M 32,5.5000002 A 26.973214,26.5 0 0 0 5.026786,32 26.973214,26.5 0 0 0 32,58.5 26.973214,26.5 0 0 0 58.973214,32 26.973214,26.5 0 0 0 32,5.5000002 Z M 19.382186,13.071428 h 25.235629 c 3.49577,0 6.310755,2.814993 6.310755,6.310757 v 25.23563 c 0,3.495764 -2.814985,6.310756 -6.310755,6.310756 H 19.382186 c -3.495765,0 -6.310757,-2.814992 -6.310757,-6.310756 v -25.23563 c 0,-3.495764 2.814992,-6.310757 6.310757,-6.310757 z m 5.207203,4.11105 c -4.903258,0 -7.406911,3.515748 -7.406911,8.061279 0,4.545524 2.684895,8.32272 7.406911,8.236886 3.03354,0 4.876361,-1.19221 6.478977,-2.976074 l -2.033343,-2.070313 c -1.24488,1.159027 -2.661757,2.079555 -4.445634,2.079556 -2.747359,0 -4.420219,-2.565213 -4.434529,-5.31257 0.01467,-2.742566 1.7778,-5.05563 4.434529,-5.05563 1.60739,0 2.966749,0.595165 4.216413,1.75422 l 1.937226,-2.318011 c -1.51678,-1.516752 -3.120099,-2.399343 -6.153639,-2.399343 z m 8.891247,0 V 33.480643 H 43.850687 V 30.519357 H 36.443771 V 17.182478 Z m -17.776953,26.67191 v 2.963135 h 14.815681 v -2.963135 z"
     class="ColorScheme-Text" />
</svg>
