<?xml version="1.0" encoding="UTF-8" standalone="no"?>
<svg
   id="svg3297"
   height="64"
   width="64"
   version="1.0"
   sodipodi:docname="rubymine.svg"
   inkscape:version="1.4.2 (ebf0e940d0, 2025-05-08)"
   xmlns:inkscape="http://www.inkscape.org/namespaces/inkscape"
   xmlns:sodipodi="http://sodipodi.sourceforge.net/DTD/sodipodi-0.dtd"
   xmlns="http://www.w3.org/2000/svg"
   xmlns:svg="http://www.w3.org/2000/svg"
   xmlns:rdf="http://www.w3.org/1999/02/22-rdf-syntax-ns#"
   xmlns:cc="http://creativecommons.org/ns#"
   xmlns:dc="http://purl.org/dc/elements/1.1/">
  <sodipodi:namedview
     id="namedview1"
     pagecolor="#9c4444"
     bordercolor="#000000"
     borderopacity="0.25"
     inkscape:showpageshadow="2"
     inkscape:pageopacity="0.0"
     inkscape:pagecheckerboard="0"
     inkscape:deskcolor="#d1d1d1"
     inkscape:zoom="3.2734375"
     inkscape:cx="40.782816"
     inkscape:cy="33.298329"
     inkscape:window-width="2560"
     inkscape:window-height="1388"
     inkscape:window-x="0"
     inkscape:window-y="0"
     inkscape:window-maximized="1"
     inkscape:current-layer="svg3297" />
  <metadata
     id="metadata58">
    <rdf:RDF>
      <cc:Work
         rdf:about="">
        <dc:format>image/svg+xml</dc:format>
        <dc:type
           rdf:resource="http://purl.org/dc/dcmitype/StillImage" />
      </cc:Work>
    </rdf:RDF>
  </metadata>
  <defs
     id="defs3299">
    <style
       id="current-color-scheme"
       type="text/css">.ColorScheme-Text {color:#d8dee9} .ColorScheme-Highlight {color:#3b4252}</style>
  </defs>
  <path
     id="path5"
     style="fill:currentColor;fill-opacity:1;fill-rule:nonzero;stroke:none;stroke-width:1.22482"
     d="m 31.999995,5.5 c -14.89608,0 -26.97321,11.865246 -26.97321,26.5 0,14.634754 12.07713,26.5 26.97321,26.5 14.8961,0 26.97322,-11.865246 26.97322,-26.5 0,-14.634754 -12.07712,-26.5 -26.97322,-26.5 z m -12.84517,7.571429 h 25.69036 c 3.55792,0 6.42167,2.813405 6.42167,6.308908 v 25.239326 c 0,3.495503 -2.86375,6.308908 -6.42167,6.308908 h -25.69036 c -3.55792,0 -6.42167,-2.813405 -6.42167,-6.308908 V 19.380337 c 0,-3.495503 2.86375,-6.308908 6.42167,-6.308908 z m -2.23299,4.114745 v 16.294469 h 3.0149 v -5.924421 h 3.0149 l 3.01674,5.924421 h 3.01488 l -3.32543,-6.478969 c 1.90575,-1.061226 3.32543,-2.408408 3.32543,-4.630476 0,-2.878027 -3.01419,-5.185024 -6.02978,-5.185024 z m 15.07816,0 v 16.294469 h 3.0149 V 23.112444 l 4.52327,7.406913 4.52325,-7.406913 v 10.368199 h 3.01674 V 17.186174 h -3.01674 l -4.52325,7.406913 -4.52327,-7.406913 z m -12.06326,2.963136 h 3.01674 c 2.39103,0 3.01551,1.188274 3.05741,2.221888 -0.0419,1.166768 -0.70488,2.221889 -3.05741,2.221889 h -3.01674 z m -4.52327,23.70138 v 2.961287 h 15.07816 V 43.85069 Z"
     class="ColorScheme-Text" />
</svg>
