<?xml version="1.0" encoding="UTF-8" standalone="no"?>
<svg
   id="svg3297"
   height="64"
   width="64"
   version="1.0"
   sodipodi:docname="webstorm.svg"
   inkscape:version="1.4.2 (ebf0e940d0, 2025-05-08)"
   xmlns:inkscape="http://www.inkscape.org/namespaces/inkscape"
   xmlns:sodipodi="http://sodipodi.sourceforge.net/DTD/sodipodi-0.dtd"
   xmlns="http://www.w3.org/2000/svg"
   xmlns:svg="http://www.w3.org/2000/svg"
   xmlns:rdf="http://www.w3.org/1999/02/22-rdf-syntax-ns#"
   xmlns:cc="http://creativecommons.org/ns#"
   xmlns:dc="http://purl.org/dc/elements/1.1/">
  <sodipodi:namedview
     id="namedview1"
     pagecolor="#9c4444"
     bordercolor="#000000"
     borderopacity="0.25"
     inkscape:showpageshadow="2"
     inkscape:pageopacity="0.0"
     inkscape:pagecheckerboard="0"
     inkscape:deskcolor="#d1d1d1"
     inkscape:zoom="3.2734375"
     inkscape:cx="40.782816"
     inkscape:cy="33.298329"
     inkscape:window-width="2560"
     inkscape:window-height="1388"
     inkscape:window-x="0"
     inkscape:window-y="0"
     inkscape:window-maximized="1"
     inkscape:current-layer="svg3297" />
  <metadata
     id="metadata58">
    <rdf:RDF>
      <cc:Work
         rdf:about="">
        <dc:format>image/svg+xml</dc:format>
        <dc:type
           rdf:resource="http://purl.org/dc/dcmitype/StillImage" />
      </cc:Work>
    </rdf:RDF>
  </metadata>
  <defs
     id="defs3299">
    <style
       id="current-color-scheme"
       type="text/css">.ColorScheme-Text {color:#d8dee9} .ColorScheme-Highlight {color:#3b4252}</style>
  </defs>
  <path
     id="path5"
     style="fill:currentColor;fill-opacity:1;stroke-width:1.33677"
     d="M 31.999995,5.5 C 17.056839,5.5 5.026785,17.319 5.026785,32 c 0,14.681 12.030054,26.5 26.97321,26.5 14.94317,0 26.97322,-11.819 26.97322,-26.5 0,-14.681 -12.03005,-26.5 -26.97322,-26.5 z M 19.15667,13.071429 h 25.688515 c 3.55821,0 6.42166,2.814968 6.42166,6.310756 v 25.23563 c 0,3.495788 -2.86345,6.310756 -6.42166,6.310756 H 19.15667 c -3.558217,0 -6.423517,-2.814968 -6.423517,-6.310756 v -25.23563 c 0,-3.495788 2.8653,-6.310756 6.423517,-6.310756 z m -3.743201,4.111049 4.525112,16.298165 h 3.00935 l 3.020432,-10.368199 3.014895,10.368199 h 3.014897 l 4.52511,-16.298165 h -3.0149 L 30.493474,27.556223 27.478588,17.182478 H 24.463693 L 21.443251,27.556223 18.433907,17.182478 Z m 27.143276,0 c -3.26738,0 -6.10188,1.611763 -6.10188,4.554687 v 0.09057 c 0,2.065287 2.10617,3.898325 5.37358,4.704416 2.71874,0.710696 3.7395,1.358743 3.7395,2.245919 v 0.09612 c 0,0.977802 -1.55959,1.645159 -3.0112,1.645159 -1.81577,0 -3.07351,-0.66726 -4.52511,-1.826312 l -1.97049,2.09804 c 1.90799,1.688485 4.04505,2.598938 6.4919,2.689558 3.447,0 5.97063,-2.117573 5.97063,-4.874476 v -0.09057 c 0,-2.442109 -1.94724,-3.463107 -5.21459,-4.35505 -2.72356,-0.710698 -3.77093,-1.210773 -3.77093,-2.279192 v -0.277274 c 0,-0.801314 1.65921,-1.454764 3.01859,-1.454764 1.35937,0 2.37914,0.09618 3.83562,1.073974 l 1.68028,-2.247768 c -1.71859,-1.020725 -3.15646,-1.793039 -5.5159,-1.793039 z M 15.413469,43.85069 v 2.961287 H 30.493474 V 43.85069 Z"
     class="ColorScheme-Text" />
</svg>
