<?xml version="1.0" encoding="UTF-8" standalone="no"?>
<svg
   id="svg3297"
   height="64"
   width="64"
   version="1.0"
   sodipodi:docname="rustrover.svg"
   inkscape:version="1.4.2 (ebf0e940d0, 2025-05-08)"
   xmlns:inkscape="http://www.inkscape.org/namespaces/inkscape"
   xmlns:sodipodi="http://sodipodi.sourceforge.net/DTD/sodipodi-0.dtd"
   xmlns="http://www.w3.org/2000/svg"
   xmlns:svg="http://www.w3.org/2000/svg"
   xmlns:rdf="http://www.w3.org/1999/02/22-rdf-syntax-ns#"
   xmlns:cc="http://creativecommons.org/ns#"
   xmlns:dc="http://purl.org/dc/elements/1.1/">
  <sodipodi:namedview
     id="namedview1"
     pagecolor="#9c4444"
     bordercolor="#000000"
     borderopacity="0.25"
     inkscape:showpageshadow="2"
     inkscape:pageopacity="0.0"
     inkscape:pagecheckerboard="0"
     inkscape:deskcolor="#d1d1d1"
     inkscape:zoom="3.2734375"
     inkscape:cx="40.782816"
     inkscape:cy="33.298329"
     inkscape:window-width="2560"
     inkscape:window-height="1388"
     inkscape:window-x="0"
     inkscape:window-y="0"
     inkscape:window-maximized="1"
     inkscape:current-layer="svg3297" />
  <metadata
     id="metadata58">
    <rdf:RDF>
      <cc:Work
         rdf:about="">
        <dc:format>image/svg+xml</dc:format>
        <dc:type
           rdf:resource="http://purl.org/dc/dcmitype/StillImage" />
      </cc:Work>
    </rdf:RDF>
  </metadata>
  <defs
     id="defs3299">
    <style
       id="current-color-scheme"
       type="text/css">.ColorScheme-Text {color:#d8dee9} .ColorScheme-Highlight {color:#3b4252}</style>
  </defs>
  <path
     id="path5"
     style="fill:currentColor;fill-opacity:1;fill-rule:nonzero;stroke:none;stroke-width:1.22482"
     d="M 32 5.5 C 17.10392 5.5 5.0273437 17.365246 5.0273438 32 C 5.0273438 46.634754 17.10392 58.5 32 58.5 C 46.8961 58.5 58.972656 46.634754 58.972656 32 C 58.972656 17.365246 46.8961 5.5 32 5.5 z M 19.154297 13.072266 L 44.845703 13.072266 C 48.403623 13.072266 51.267578 15.885356 51.267578 19.380859 L 51.267578 44.619141 C 51.267578 48.114644 48.403623 50.927734 44.845703 50.927734 L 19.154297 50.927734 C 15.596377 50.927734 12.732422 48.114644 12.732422 44.619141 L 12.732422 19.380859 C 12.732422 15.885356 15.596377 13.072266 19.154297 13.072266 z M 18.429688 17.185547 L 18.429688 33.480469 L 21.445312 33.480469 L 21.445312 27.556641 L 24.460938 27.556641 L 27.476562 33.480469 L 30.492188 33.480469 L 27.166016 27.001953 C 29.071766 25.940727 30.492188 24.593162 30.492188 22.371094 C 30.492188 19.493067 27.476529 17.185547 24.460938 17.185547 L 18.429688 17.185547 z M 33.507812 17.185547 L 33.507812 33.480469 L 36.523438 33.480469 L 36.523438 27.556641 L 39.539062 27.556641 L 42.554688 33.480469 L 45.570312 33.480469 L 42.244141 27.001953 C 44.149891 25.940727 45.570312 24.593162 45.570312 22.371094 C 45.570312 19.493067 42.554654 17.185547 39.539062 17.185547 L 33.507812 17.185547 z M 21.445312 20.148438 L 24.460938 20.148438 C 26.851968 20.148438 27.479584 21.33748 27.521484 22.371094 C 27.479584 23.537862 26.813467 24.59375 24.460938 24.59375 L 21.445312 24.59375 L 21.445312 20.148438 z M 36.523438 20.148438 L 39.539062 20.148438 C 41.930093 20.148438 42.557709 21.33748 42.599609 22.371094 C 42.557709 23.537862 41.891593 24.59375 39.539062 24.59375 L 36.523438 24.59375 L 36.523438 20.148438 z M 15.414062 43.851562 L 15.414062 46.8125 L 30.492188 46.8125 L 30.492188 43.851562 L 15.414062 43.851562 z "
     class="ColorScheme-Text" />
</svg>
