<?xml version="1.0" encoding="UTF-8" standalone="no"?>
<svg
   id="svg3297"
   height="64"
   width="64"
   version="1.0"
   sodipodi:docname="datagrip.svg"
   inkscape:version="1.4.2 (ebf0e940d0, 2025-05-08)"
   xmlns:inkscape="http://www.inkscape.org/namespaces/inkscape"
   xmlns:sodipodi="http://sodipodi.sourceforge.net/DTD/sodipodi-0.dtd"
   xmlns="http://www.w3.org/2000/svg"
   xmlns:svg="http://www.w3.org/2000/svg"
   xmlns:rdf="http://www.w3.org/1999/02/22-rdf-syntax-ns#"
   xmlns:cc="http://creativecommons.org/ns#"
   xmlns:dc="http://purl.org/dc/elements/1.1/">
  <sodipodi:namedview
     id="namedview1"
     pagecolor="#9c4444"
     bordercolor="#000000"
     borderopacity="0.25"
     inkscape:showpageshadow="2"
     inkscape:pageopacity="0.0"
     inkscape:pagecheckerboard="0"
     inkscape:deskcolor="#d1d1d1"
     inkscape:zoom="3.2734375"
     inkscape:cx="40.782816"
     inkscape:cy="33.298329"
     inkscape:window-width="2560"
     inkscape:window-height="1388"
     inkscape:window-x="0"
     inkscape:window-y="0"
     inkscape:window-maximized="1"
     inkscape:current-layer="svg3297" />
  <metadata
     id="metadata58">
    <rdf:RDF>
      <cc:Work
         rdf:about="">
        <dc:format>image/svg+xml</dc:format>
        <dc:type
           rdf:resource="http://purl.org/dc/dcmitype/StillImage" />
      </cc:Work>
    </rdf:RDF>
  </metadata>
  <defs
     id="defs3299">
    <style
       id="current-color-scheme"
       type="text/css">.ColorScheme-Text {color:#d8dee9} .ColorScheme-Highlight {color:#3b4252}</style>
  </defs>
  <path
     id="path5"
     style="fill:currentColor;fill-opacity:1;stroke-width:1.33677"
     d="m 31.999995,5.5 c -14.94316,0 -26.97321,11.819 -26.97321,26.5 0,14.681 12.03005,26.5 26.97321,26.5 14.94316,0 26.97322,-11.819 26.97322,-26.5 0,-14.681 -12.03006,-26.5 -26.97322,-26.5 z m -12.84332,7.571429 h 25.6885 c 3.55822,0 6.42167,2.814968 6.42167,6.310756 v 25.237479 c 0,3.495789 -2.86345,6.308907 -6.42167,6.308907 h -25.6885 c -3.55822,0 -6.42352,-2.813118 -6.42352,-6.308907 V 19.382185 c 0,-3.495788 2.8653,-6.310756 6.42352,-6.310756 z m -1.87992,4.584263 -0.002,16.015346 h 4.44562 l 2.30508,-0.02588 c 2.86967,-0.03376 6.58803,-2.860721 6.58803,-7.944825 v -0.07395 c 0,-5.035091 -3.09414,-7.970703 -6.92816,-7.970703 z m 22.97122,0 c -2.35134,4.05e-4 -4.44485,0.760657 -5.90963,2.199707 -1.4657,1.438542 -2.24038,3.497345 -2.24038,5.807966 0,2.310839 0.77527,4.366627 2.24038,5.806117 1.46426,1.439992 3.55777,2.201556 5.90963,2.201556 2.15238,0 3.76707,-0.661119 4.81163,-1.353097 1.04457,-0.691889 1.61188,-1.510219 1.61188,-1.510219 l 0.24586,-0.364153 v -5.50851 h -7.41062 v 2.911376 h 4.44564 v 1.573069 c -0.0924,0.111654 -0.11873,0.199294 -0.54901,0.484305 -0.62246,0.412096 -1.6022,0.855852 -3.15538,0.855852 -1.72363,0 -2.96468,-0.511776 -3.81529,-1.347552 -0.85072,-0.835766 -1.37159,-2.055359 -1.37159,-3.748744 0,-1.693328 0.52087,-2.911174 1.37159,-3.746896 0.85068,-0.835773 2.09166,-1.3494 3.81529,-1.3494 1.72343,0 2.96504,0.512006 3.81529,1.347552 l 2.0962,-2.059222 c -1.46388,-1.439614 -3.55852,-2.199303 -5.90964,-2.199707 z m -20.00809,2.911377 h 2.96314 c 1.78435,0 4.44747,1.480444 4.44747,5.059326 v 0.07394 c 0,3.628249 -2.66358,5.059326 -4.44747,5.059326 h -2.96314 z m -4.44563,23.296562 v 2.911376 h 14.81938 v -2.911376 z"
     class="ColorScheme-Text" />
</svg>
