<?xml version="1.0" encoding="UTF-8" standalone="no"?>
<svg
   width="64"
   height="64"
   version="1.1"
   viewBox="0 0 16.933 16.933"
   id="svg7"
   sodipodi:docname="gwenview.svg"
   inkscape:version="1.4.2 (ebf0e940d0, 2025-05-08)"
   xmlns:inkscape="http://www.inkscape.org/namespaces/inkscape"
   xmlns:sodipodi="http://sodipodi.sourceforge.net/DTD/sodipodi-0.dtd"
   xmlns="http://www.w3.org/2000/svg"
   xmlns:svg="http://www.w3.org/2000/svg"
   xmlns:rdf="http://www.w3.org/1999/02/22-rdf-syntax-ns#"
   xmlns:cc="http://creativecommons.org/ns#"
   xmlns:dc="http://purl.org/dc/elements/1.1/">
  <sodipodi:namedview
     id="namedview7"
     pagecolor="#9c4444"
     bordercolor="#000000"
     borderopacity="0.25"
     inkscape:showpageshadow="2"
     inkscape:pageopacity="0.0"
     inkscape:pagecheckerboard="0"
     inkscape:deskcolor="#d1d1d1"
     inkscape:zoom="6.15625"
     inkscape:cx="15.756345"
     inkscape:cy="27.370558"
     inkscape:window-width="1183"
     inkscape:window-height="941"
     inkscape:window-x="0"
     inkscape:window-y="0"
     inkscape:window-maximized="0"
     inkscape:current-layer="svg7"
     showgrid="false" />
  <defs
     id="defs2">
    <style
       id="current-color-scheme"
       type="text/css">.ColorScheme-Text {color:#d8dee9} .ColorScheme-Highlight {color:#3b4252}</style>
  </defs>
  <metadata
     id="metadata2">
    <rdf:RDF>
      <cc:Work
         rdf:about="">
        <dc:format>image/svg+xml</dc:format>
        <dc:type
           rdf:resource="http://purl.org/dc/dcmitype/StillImage" />
      </cc:Work>
    </rdf:RDF>
  </metadata>
  <path
     style="fill:currentColor;fill-opacity:1;fill-rule:evenodd;stroke:none;stroke-width:0.430133;stroke-dasharray:none;stroke-opacity:0.3"
     d="M 8.4665008,4.101 V 4.10242 C 7.0283456,4.1156952 5.5809615,4.4244976 4.3282311,5.0928314 3.8289374,5.3989875 3.229527,5.7942703 2.7778295,6.1926641 2.0671165,6.8477422 1.458756,7.6114318 1.0477565,8.4676427 2.1744267,10.807347 4.6506664,12.52266 7.3754241,12.776035 9.1627476,12.9665 11.033625,12.675005 12.60477,11.842456 13.104047,11.536301 13.703468,11.141018 14.155166,10.742621 14.865884,10.08612 15.474245,9.3224286 15.885244,8.4676135 14.759079,6.1280449 12.281739,4.4134536 9.557575,4.1606422 9.1955416,4.1201325 8.8300159,4.100961 8.4665008,4.100961 Z m 0.00291,1.4550764 C 10.05681,5.5215876 11.462441,6.9148429 11.43257,8.4633893 11.483553,10.174883 9.7451753,11.651937 8.026136,11.332331 6.2900286,11.132411 5.0701141,9.2217297 5.6411266,7.6036986 6.0062074,6.4133071 7.1987204,5.5435468 8.4709717,5.5574991 Z m -0.00291,1.4550752 A 1.4837479,1.4542387 0 0 0 6.9827524,8.4676509 1.4837479,1.4542387 0 0 0 8.4665008,9.9213061 1.4837479,1.4542387 0 0 0 9.9502501,8.4676509 1.4837479,1.4542387 0 0 0 8.4665008,7.0154147 Z"
     id="path24"
     class="ColorScheme-Text" />
</svg>
