<?xml version="1.0" encoding="UTF-8" standalone="no"?>
<svg
   id="svg3297"
   height="64"
   width="64"
   version="1.0"
   sodipodi:docname="pycharmedu.svg"
   inkscape:version="1.4.2 (ebf0e940d0, 2025-05-08)"
   xmlns:inkscape="http://www.inkscape.org/namespaces/inkscape"
   xmlns:sodipodi="http://sodipodi.sourceforge.net/DTD/sodipodi-0.dtd"
   xmlns="http://www.w3.org/2000/svg"
   xmlns:svg="http://www.w3.org/2000/svg"
   xmlns:rdf="http://www.w3.org/1999/02/22-rdf-syntax-ns#"
   xmlns:cc="http://creativecommons.org/ns#"
   xmlns:dc="http://purl.org/dc/elements/1.1/">
  <sodipodi:namedview
     id="namedview1"
     pagecolor="#9c4444"
     bordercolor="#000000"
     borderopacity="0.25"
     inkscape:showpageshadow="2"
     inkscape:pageopacity="0.0"
     inkscape:pagecheckerboard="0"
     inkscape:deskcolor="#d1d1d1"
     inkscape:zoom="6.546875"
     inkscape:cx="64.99284"
     inkscape:cy="33.603819"
     inkscape:window-width="2560"
     inkscape:window-height="1388"
     inkscape:window-x="0"
     inkscape:window-y="0"
     inkscape:window-maximized="1"
     inkscape:current-layer="svg3297" />
  <metadata
     id="metadata58">
    <rdf:RDF>
      <cc:Work
         rdf:about="">
        <dc:format>image/svg+xml</dc:format>
        <dc:type
           rdf:resource="http://purl.org/dc/dcmitype/StillImage" />
      </cc:Work>
    </rdf:RDF>
  </metadata>
  <defs
     id="defs3299">
    <style
       id="current-color-scheme"
       type="text/css">.ColorScheme-Text {color:#d8dee9} .ColorScheme-Highlight {color:#3b4252}</style>
  </defs>
  <path
     id="path5"
     style="fill:currentColor;stroke-width:4.81174;paint-order:stroke fill markers"
     d="M 32,5.5 A 26.973215,26.499999 0 0 0 5.0273439,32 26.973215,26.499999 0 0 0 32,58.5 26.973215,26.499999 0 0 0 58.972656,32 26.973215,26.499999 0 0 0 32,5.5 Z m -12.845703,7.572266 h 25.691406 c 3.55792,0 6.421875,2.813091 6.421875,6.308593 v 25.238282 c 0,3.495501 -2.863955,6.308593 -6.421875,6.308593 H 19.154297 c -3.55792,0 -6.421875,-2.813092 -6.421875,-6.308593 V 19.380859 c 0,-3.495502 2.863955,-6.308593 6.421875,-6.308593 z m 0.689453,4.113281 v 16.296875 h 3.017578 V 27.556641 H 25.875 c 3.6301,0 6.03125,-1.45591 6.03125,-5.111329 v -0.07422 c 0,-3.298932 -1.636852,-5.185547 -5.539062,-5.185547 z m 15.078125,0 v 16.298828 h 9.234375 v -2.466797 h -6.322266 v -4.792969 h 5.91211 v -2.441406 h -5.91211 V 19.628906 H 44.15625 V 17.185547 Z M 22.861328,20.148438 H 25.875 c 1.81499,0 3.015625,0.617855 3.015625,2.222656 v 0.07422 c 0,1.33737 -1.200635,2.148438 -3.015625,2.148438 h -3.013672 z m -7.447266,23.705078 v 2.964843 h 15.078126 v -2.964843 z"
     class="ColorScheme-Text" />
</svg>
